# Blender v2.78 (sub 0) OBJ File: 'Decoration1.blend'
# www.blender.org
mtllib MinimalisticVase.mtl
o Cube
v 1.000000 0.000000 -1.000000
v 1.000000 0.000000 1.000000
v -1.000000 0.000000 1.000000
v -1.000000 0.000000 -1.000000
v 1.163403 2.000000 -1.163402
v 1.163402 2.000000 1.163403
v -1.163403 2.000000 1.163402
v -1.163402 2.000000 -1.163402
v 1.163403 2.200300 -1.163402
v 1.163402 2.200300 1.163403
v -1.163403 2.200300 1.163402
v -1.163402 2.200300 -1.163402
v 0.940946 2.418445 -0.940945
v 0.940945 2.418445 0.940946
v -0.940946 2.418445 0.940945
v -0.940946 2.418445 -0.940946
v 0.940946 2.494831 -0.940945
v 0.940945 2.494831 0.940946
v -0.940946 2.494831 0.940945
v -0.940946 2.494831 -0.940946
v 1.207623 2.735078 -1.207623
v 1.207622 2.735078 1.207623
v -1.207623 2.735078 1.207622
v -1.207623 2.735078 -1.207623
v 1.207623 2.912875 -1.207623
v 1.207622 2.912875 1.207623
v -1.207623 2.912875 1.207622
v -1.207623 2.912875 -1.207623
v 0.188047 3.673148 -0.618057
v 0.618057 3.673148 0.188047
v -0.188047 3.673148 0.618057
v -0.618057 3.673148 -0.188046
v 0.188047 3.773246 -0.618057
v 0.618057 3.773246 0.188047
v -0.188047 3.773246 0.618057
v -0.618057 3.773246 -0.188046
v 0.451507 4.264693 -0.462058
v 0.462058 4.264693 0.451507
v -0.451507 4.264693 0.462058
v -0.462058 4.264693 -0.451507
v 0.451507 4.341207 -0.462058
v 0.462058 4.341207 0.451507
v -0.451507 4.341207 0.462058
v -0.462058 4.341207 -0.451507
v 0.607168 4.469489 -0.621357
v 0.621357 4.469489 0.607169
v -0.607169 4.469489 0.621357
v -0.621357 4.469489 -0.607168
v 0.607168 4.553048 -0.621357
v 0.621357 4.553048 0.607169
v -0.607169 4.553048 0.621357
v -0.621357 4.553048 -0.607168
v 0.607169 4.833799 -0.909638
v 0.621357 4.833799 0.888867
v -0.607169 4.833799 0.909638
v -0.621357 4.833799 -0.888866
v 0.607169 4.927244 -0.909638
v 0.621357 4.927244 0.888867
v -0.607169 4.927244 0.909638
v -0.621357 4.927244 -0.888866
v 0.417854 5.036412 -0.626014
v 0.427618 5.036412 0.611719
v -0.417854 5.036412 0.626014
v -0.427619 5.036412 -0.611718
v 0.417854 5.089822 -0.626014
v 0.427618 5.089822 0.611719
v -0.417854 5.089822 0.626014
v -0.427619 5.089822 -0.611718
vn 0.0000 -1.0000 0.0000
vn 0.0000 0.0000 -1.0000
vn 0.9967 -0.0814 0.0000
vn -0.0000 -0.0814 0.9967
vn -0.9967 -0.0814 -0.0000
vn 0.0000 -0.0814 -0.9967
vn -0.0000 0.7140 0.7002
vn -0.0000 0.0000 1.0000
vn 1.0000 0.0000 0.0000
vn -1.0000 0.0000 -0.0000
vn 0.7002 0.7140 0.0000
vn -0.7002 0.7140 -0.0000
vn 0.0000 0.7140 -0.7002
vn -0.6693 -0.7430 -0.0000
vn 0.0000 -0.7430 -0.6693
vn -0.0000 -0.7430 0.6693
vn 0.6693 -0.7430 0.0000
vn -0.6969 0.7112 0.0930
vn -0.4707 0.0000 -0.8823
vn -0.0930 0.7112 -0.6969
vn 0.0930 0.7112 0.6969
vn 0.6969 0.7112 -0.0930
vn 0.2482 -0.0000 0.9687
vn 0.4707 0.0000 0.8823
vn 0.8823 0.0000 -0.4707
vn -0.8823 0.0000 0.4707
vn -0.9999 0.0000 0.0115
vn 0.9687 -0.0000 -0.2482
vn -0.9687 0.0000 0.2482
vn -0.2482 0.0000 -0.9687
vn 0.0073 -0.7753 0.6315
vn -0.0115 0.0000 -0.9999
vn 0.0115 0.0000 0.9999
vn 0.9999 0.0000 -0.0115
vn 0.6315 -0.7753 -0.0073
vn -0.6315 -0.7753 0.0073
vn -0.0073 -0.7753 -0.6315
vn -1.0000 -0.0001 0.0094
vn 0.0169 0.0000 0.9999
vn -0.0100 -0.7123 -0.7018
vn 0.0100 -0.7123 0.7018
vn 1.0000 -0.0001 -0.0094
vn 0.4951 0.8688 -0.0039
vn 1.0000 0.0000 -0.0079
vn -1.0000 0.0000 0.0079
vn -0.0169 0.0000 -0.9999
vn -0.4951 0.8688 0.0039
vn -0.0061 0.9319 -0.3628
vn 0.0061 0.9319 0.3628
vn 0.0000 1.0000 0.0000
usemtl Material.004
s off
f 1//1 2//1 3//1 4//1
f 5//2 8//2 12//2 9//2
f 1//3 5//3 6//3 2//3
f 2//4 6//4 7//4 3//4
f 3//5 7//5 8//5 4//5
f 5//6 1//6 4//6 8//6
f 11//7 10//7 14//7 15//7
f 7//8 6//8 10//8 11//8
f 6//9 5//9 9//9 10//9
f 8//10 7//10 11//10 12//10
f 14//9 13//9 17//9 18//9
f 10//11 9//11 13//11 14//11
f 12//12 11//12 15//12 16//12
f 9//13 12//13 16//13 13//13
f 20//14 19//14 23//14 24//14
f 16//10 15//10 19//10 20//10
f 13//2 16//2 20//2 17//2
f 15//8 14//8 18//8 19//8
f 23//8 22//8 26//8 27//8
f 17//15 20//15 24//15 21//15
f 19//16 18//16 22//16 23//16
f 18//17 17//17 21//17 22//17
f 28//18 27//18 31//18 32//18
f 22//9 21//9 25//9 26//9
f 24//10 23//10 27//10 28//10
f 21//2 24//2 28//2 25//2
f 29//19 32//19 36//19 33//19
f 25//20 28//20 32//20 29//20
f 27//21 26//21 30//21 31//21
f 26//22 25//22 29//22 30//22
f 35//23 34//23 38//23 39//23
f 31//24 30//24 34//24 35//24
f 30//25 29//25 33//25 34//25
f 32//26 31//26 35//26 36//26
f 40//27 39//27 43//27 44//27
f 34//28 33//28 37//28 38//28
f 36//29 35//29 39//29 40//29
f 33//30 36//30 40//30 37//30
f 43//31 42//31 46//31 47//31
f 37//32 40//32 44//32 41//32
f 39//33 38//33 42//33 43//33
f 38//34 37//34 41//34 42//34
f 47//33 46//33 50//33 51//33
f 42//35 41//35 45//35 46//35
f 44//36 43//36 47//36 48//36
f 41//37 44//37 48//37 45//37
f 52//38 51//38 55//38 56//38
f 46//34 45//34 49//34 50//34
f 48//27 47//27 51//27 52//27
f 45//32 48//32 52//32 49//32
f 55//39 54//39 58//39 59//39
f 49//40 52//40 56//40 53//40
f 51//41 50//41 54//41 55//41
f 50//42 49//42 53//42 54//42
f 58//43 57//43 61//43 62//43
f 54//44 53//44 57//44 58//44
f 56//45 55//45 59//45 60//45
f 53//46 56//46 60//46 57//46
f 64//45 63//45 67//45 68//45
f 60//47 59//47 63//47 64//47
f 57//48 60//48 64//48 61//48
f 59//49 58//49 62//49 63//49
f 65//50 68//50 67//50 66//50
f 61//46 64//46 68//46 65//46
f 63//39 62//39 66//39 67//39
f 62//44 61//44 65//44 66//44
